<?xml version="1.0" encoding="UTF-8"?>
<svg width="252px" height="253px" viewBox="0 0 252 253" version="1.1" xmlns="http://www.w3.org/2000/svg" xmlns:xlink="http://www.w3.org/1999/xlink">
    <!-- Generator: Sketch 52.3 (67297) - http://www.bohemiancoding.com/sketch -->
    <title>instagram</title>
    <desc>Created with Sketch.</desc>
    <g id="Page-1" stroke="none" stroke-width="1" fill="none" fill-rule="evenodd">
        <g id="instagram" fill="#000000">
            <path d="M188.425781,0.035156 L63.578125,0.035156 C28.527344,0.035156 0.015625,28.550781 0.015625,63.597656 L0.015625,188.445312 C0.015625,223.496094 28.527344,252.003906 63.578125,252.003906 L188.425781,252.003906 C223.476562,252.003906 251.984375,223.496094 251.984375,188.445312 L251.984375,63.597656 C251.984375,28.550781 223.476562,0.035156 188.425781,0.035156 Z M224.566406,188.445312 C224.566406,208.375 208.351562,224.589844 188.425781,224.589844 L63.578125,224.589844 C43.652344,224.589844 27.4375,208.375 27.4375,188.445312 L27.4375,63.597656 C27.4375,43.671875 43.652344,27.460938 63.578125,27.460938 L188.425781,27.460938 C208.351562,27.460938 224.566406,43.671875 224.566406,63.597656 L224.566406,188.445312 Z" id="Shape" fill-rule="nonzero"></path>
            <path d="M192.980469,74.546875 C184.511719,74.546875 177.621094,67.660156 177.621094,59.191406 C177.621094,50.726562 184.511719,43.839844 192.980469,43.839844 C201.449219,43.839844 208.335938,50.726562 208.335938,59.191406 C208.335938,67.660156 201.449219,74.546875 192.980469,74.546875 Z" id="Path"></path>
            <path d="M125.996094,61.128906 C90.21875,61.128906 61.105469,90.238281 61.105469,126.019531 C61.105469,161.800781 90.21875,190.914062 125.996094,190.914062 C161.78125,190.914062 190.894531,161.800781 190.894531,126.019531 C190.894531,90.242188 161.78125,61.128906 125.996094,61.128906 Z M125.996094,163.5 C105.34375,163.5 88.523438,146.683594 88.523438,126.019531 C88.523438,105.363281 105.34375,88.554688 125.996094,88.554688 C146.660156,88.554688 163.46875,105.363281 163.46875,126.019531 C163.46875,146.683594 146.660156,163.5 125.996094,163.5 Z" id="Shape" fill-rule="nonzero"></path>
        </g>
    </g>
</svg>