<?xml version="1.0" encoding="UTF-8"?>
<svg width="512px" height="512px" viewBox="0 0 512 512" version="1.1" xmlns="http://www.w3.org/2000/svg" xmlns:xlink="http://www.w3.org/1999/xlink">
    <!-- Generator: Sketch 52.3 (67297) - http://www.bohemiancoding.com/sketch -->
    <title>instagram</title>
    <desc>Created with Sketch.</desc>
    <g id="Page-1" stroke="none" stroke-width="1" fill="none" fill-rule="evenodd">
        <g id="instagram">
            <polygon id="Shape-Copy" fill="#FFFFFF" fill-rule="nonzero" points="0 0 0 512 512 512 512 0"></polygon>
            <path d="M338.376288,89.7783502 L173.628866,89.7783502 C127.376289,89.7783502 89.7525773,127.407216 89.7525773,173.654639 L89.7525773,338.402061 C89.7525773,384.65464 127.376289,422.273196 173.628866,422.273196 L338.376288,422.273196 C384.628865,422.273196 422.247423,384.65464 422.247423,338.402061 L422.247423,173.654639 C422.247423,127.407216 384.628865,89.7783502 338.376288,89.7783502 Z M386.06701,338.402061 C386.06701,364.701031 364.670102,386.097938 338.376288,386.097938 L173.628866,386.097938 C147.335052,386.097938 125.938144,364.701031 125.938144,338.402061 L125.938144,173.654639 C125.938144,147.360825 147.335052,125.969073 173.628866,125.969073 L338.376288,125.969073 C364.670102,125.969073 386.06701,147.360825 386.06701,173.654639 L386.06701,338.402061 Z" id="Shape" stroke="#000000" stroke-width="10" fill-rule="nonzero"></path>
            <path d="M344.386598,188.103093 C333.211341,188.103093 324.118557,179.015464 324.118557,167.840206 C324.118557,156.670102 333.211341,147.582475 344.386598,147.582475 C355.561856,147.582475 364.649485,156.670102 364.649485,167.840206 C364.649485,179.015464 355.561856,188.103093 344.386598,188.103093 Z" id="Path" stroke="#000000" stroke-width="10"></path>
            <path d="M255.994846,170.396907 C208.783505,170.396907 170.36598,208.809278 170.36598,256.025773 C170.36598,303.242268 208.783505,341.659793 255.994846,341.659793 C303.216495,341.659793 341.63402,303.242268 341.63402,256.025773 C341.63402,208.814434 303.216495,170.396907 255.994846,170.396907 Z M255.994846,305.484536 C228.742268,305.484536 206.546392,283.293815 206.546392,256.025773 C206.546392,228.768041 228.742268,206.58763 255.994846,206.58763 C283.262886,206.58763 305.443299,228.768041 305.443299,256.025773 C305.443299,283.293815 283.262886,305.484536 255.994846,305.484536 Z" id="Shape" stroke="#000000" stroke-width="10" fill-rule="nonzero"></path>
        </g>
    </g>
</svg>